<?xml version="1.0" encoding="utf-8"?>
<!-- Generator: Adobe Illustrator 22.0.1, SVG Export Plug-In . SVG Version: 6.00 Build 0)  -->
<svg version="1.1" xmlns="http://www.w3.org/2000/svg" xmlns:xlink="http://www.w3.org/1999/xlink" x="0px" y="0px"
	 viewBox="0 0 1024 1024" style="enable-background:new 0 0 1024 1024;" xml:space="preserve">
<style type="text/css">
	.st0{fill:#BCBABE;stroke:#000000;stroke-width:30;stroke-miterlimit:10;}
	.st1{fill:#98FF8B;stroke:#000000;stroke-width:30;stroke-miterlimit:10;}
	.st2{fill:none;}
	.st3{fill:#F1F1F2;}
	.st4{fill:#197DD5;}
	.st5{fill:none;stroke:#000000;stroke-width:30;stroke-miterlimit:10;}
</style>
<g id="Layer_8">
</g>
<g id="Layer_7">
</g>
<g id="Layer_6">
</g>
<g id="Layer_5">
</g>
<g id="Layer_2_copy_2">
	<path class="st0" d="M961,1010H65c-27.6,0-50-22.4-50-50V67c0-27.6,22.4-50,50-50h896c27.6,0,50,22.4,50,50v893
		C1011,987.6,988.6,1010,961,1010z"/>
	<line class="st1" x1="17" y1="431" x2="1003" y2="431"/>
</g>
<g id="Layer_2_copy">
	<path class="st2" d="M584.4,18.8c0.2-0.6,0.3-1.3,0.5-1.8h-4.3C581.7,18,583,18.6,584.4,18.8z"/>
	<path class="st2" d="M295,987.3c-2.8-3.3-3-6.7-1.9-9.5c1.4-3.6,2.7-7.9,6.8-8.4c7.2-0.9,12.5-4.8,18.9-7.1
		c3.3-7.6,10.1-12,13.8-19.3c-0.9-2.5-1.9-4.9-2.8-7.4c-1.8-0.8-3.6-1.5-5.4-2.3c-0.8,0.5-1.5,0.2-2.3-0.8c-1.5-0.3-3.3-0.2-4.6-1.1
		c-7.7-5.8-15.3-7.4-22.9-8c-4.9,3-4.9,3-9.8-2.6c-1.2-1.4-2.4-2.7-3.7-4c-1,0-1.9,0-2.9,0c-0.6,0.2-1.1,0.6-1.8,0.7
		c-3.3,0.6-4.3-0.1-4.1-2.9c0.1-2.5,0.7-4.9,1-7.4c-0.8-1.2-0.8-2.2-0.3-3.1c-1.1-1.9-1.8-3.7-0.9-5.2c-0.3-0.9-0.2-1.5,0.3-2
		c-1.5-3.1-2.5-6.2-1.9-9.1l-0.2,0c0.1-3.9-0.5-8.3,0.5-11.6c4.1-13.3,5.4-28.4,11.3-40.6c0.4-0.6,0.7-1.3,1.1-1.9c0.7-2,1.3-4,2-6
		c-0.1-9.4,3.8-16.3,6.8-23.7c0.2-5.5,2.6-9.6,4.3-14.2c0.7-2-0.1-3.8-1.5-5.8c-13.1-3.2-25.1-11.2-36.5-21.6
		c-12.6-10.5-25.8-20.2-35.4-34.5c-2.1-3.1-4.5-6-6.8-8.9c-4.5-5.7-9.5-10.2-15.7-12c-3.1-0.3-6.4-0.9-9.2-3.3
		c-5-4.3-10.9-8.1-11.7-15.8c-0.4-3.5-2.5-7.5-5.5-10.8c-3.6-3.9-3.9-7.4-3.6-11.6c1-10.6,0-22.1,4.5-30.9c2.1-10.1,2.8-21,6.1-30.4
		l0,0c0.4-4.1,1-8.2,1.3-12.3c0.3-3.7,0.7-7.4-0.9-11.3c-2.6-1.1-3.5,0-4.4,0.8c-4.6,4.5-10.5,6.5-18.1,5.2c-4.2-0.7-6.8,1.3-9.5,3
		c-4.2,2.6-8.3,5.2-13.9,5.4c-8.5,4-17.1,8-25.6,12.1c-2.5,1.2-5.5,0.7-8.5,0.3c-4.3,3.6-9.3,5.5-15.5,6.3
		c-8.2,1.2-15.6,4.5-23.3,6.8c-1.3,0.4-2.7,0.4-4,0.7l0,0c-1.8,0.8-3.6,1.6-5.4,2.5c-4,1.4-8,2.8-12.1,4.2c-6.3,2.8-11,8.4-19.4,7.8
		c-2.2,0.9-4.5,1.8-6.7,2.7V960c0,27.6,22.4,50,50,50h241.5c-1-2.3-1.9-4.6-3-6.8C300.9,997.8,299.1,992.3,295,987.3z"/>
	<path class="st2" d="M961,17H594.9c0.8,0.8,1.5,1.8,2.1,3.1c2,4.4,5.9,8.7,3.5,13c-0.4,0.7,1.1,3.2,2.1,4.7
		c1.5,2.3,3.3,4.5,5.2,7.1c-3.5,1.4-7.8,0.4-10,3.1c-0.7,1.2-1.3,2.3-2,3.5c-2,3.4-2.6,6.7,1.7,12c4.1,5,5.8,10.5,1.1,13.6
		c1.2,1.4,2.4,2.8,3.6,4.3c0.6,0.5,1.2,1,1.8,1.7c4.2-0.4,4.6,0,4.9,4c1.3,1.4,2.6,2.8,3.9,4.2c6.6-0.6,13.1,5.6,19.7,7
		c4.3,6.5,8.8,12.9,12.9,19.4c0.5,0.7-0.4,2.1-0.7,3.1c-0.4,1.6,0.2,3.3,1.9,4.5c3,2.2,5.7,4.7,7.8,7.9c1,1.5,2.6,3.9,2.2,4.7
		c-2.1,5.1,1.7,10.3,4,15.6c0.7,1.6,1,3.3,1.3,4.9c0.3,2,1.4,3.2,3.2,3.8c0.4,0.1,0.8,0.1,1.1,0.2c7.4,0.9,11.8,6.2,15,13.6
		c4.4,0.9,6.1-2.5,9.1-3.8c2.4-1.1,4-3.6,7.6-2.4c2.4-3.8,5.9-6.4,9.7-8.4c10.9-5.8,22.1-10.9,32.8-17c5.8-3.3,11.1-7.2,17.3-9.8
		c3.1-1.3,6-2.9,9.1-4.2c7.8-3.1,15.3-6.8,23-10.1c3.1-1.3,6.3-2.3,10.2-2.1c3.7,0.2,7.4-0.2,8.8-4c0.7-1.8,2.6-2,4.3-2.3
		c11.1-1.9,22.2-3.9,33.3-5.7c1.4-0.2,3,0.1,4.5,0.1c6.7-3.4,15-2.6,23-2.3c4.3,0.1,10.5,7.6,9,11.1c-2.2,5.2-1.2,11.9-3.2,17
		c4,5.6,4,5.6,1.7,9c1.6,4.7-2.3,4.9-3.7,7.2c1.3,1.7,2.6,3.4,2.8,5.4c1.2,2.8,3.1,5.6,2.5,8.3c1.1,1.8,1.4,3.5,0.6,4.9
		c0,0,0,0.8,0,0.7c1.9,5.4,3.7,10.8,5.9,16.2c0.8,2,2.3,4.5,3.9,5.7c12.5,9.1,17.1,21.8,22,34.4c5.8,6.7,6.3,12.9,4.3,18.7
		c-0.7,2-1.5,4.1-2.9,5.4c-6.4,5.7-5.5,15.3-3.1,24.8c2.2,8.8,3.7,17.5,5.5,26.2c1.9,8.8,3.6,18.1,1.6,26.2c-1,4.2-0.7,9.2-0.8,13.9
		c0,3.2,0.3,6.4-1.5,8.6c-0.8,0.9-1.1,2.8-0.7,4.3c2.5,8.7,0.1,14.8-2.7,20.9c-0.7,1.6-1.1,3.4-1.6,5.1c-1.5-0.9-3.1-1.8-4.6-2.6
		c1.6,0.8,3.1,1.7,4.6,2.6c2.3,2.9,4.4,2.5,6.4,2c7.8-1.7,15.6-3.5,23.4-5.2c7.8-1.7,15.5-3.4,23.3-5.1c0.7-0.2,1.4-0.3,2.1-0.4
		c7.1-0.7,8.4,0.1,15.1,9.5c-3.4,3.8-5,9.7-10.8,11.2c-2.2,0.6-3,2.7-2.1,5.5c1.5,4.8,0.4,7.7-2.4,10c-1.1,0.9-0.1,2.8,1.9,3.9
		c5.7,3.2,5.7,3.3,6,8.1c0.1,1.2-0.7,2.5-0.2,3.4c4.7,7.4,1.8,10.6-2.1,13.8c-2.3,1.9-3.2,5.3-1.7,9.5c1,2.7,1.1,5,0.1,6.9
		c-2.5,5.3-5.2,10.5-6,17c-0.2,1.7-2,2.6-3.1,3.8c1.8,3.1,4.6,4.3,7.2,6.2c4.9,3.7,6.1,8.2,3.1,11.4c-2.1,2.2-3.7,4.7-4.3,8.1
		c0.5,4.7-0.8,8.5,1.3,14.1c2.7,7.6,1.2,14.4-3,19.2c0.7,6.1,0.2,11.7-1.7,16.6c-0.9,2.3-1.7,4.6-2,7.2c-0.4,3.5,2.1,6.6,6.3,8.3
		c1.2,0.5,2.3,0.8,3.5,1.4c1.8,1,3.3,3.9,2.5,5.4c-1.3,2.8-2.7,5.5-4.3,8c-1.5,2.2-3.4,4.1-4.9,6.2c-1,1.4,0.6,3,1.5,4.5
		c2.6-1.5,4.5-4.1,8.1-3.7c2.8,0.3,4.8-3.8,8,0.1c2.3,2.9-1.1,4.7-1,7.4c0,3.6,1.3,7.7-3,8.2c-0.6,0.9-1.3,1.8-1.9,2.8
		c1.4,2.2,2.6,3.1,4.9,2.5c3.4-1,6.3,1,7,4.7c1.8,9.1,2.1,17.3-5.9,20.2l0.8,0.4c4.4,5.5,3.9,11.4,6.1,17c1.2,3.2-1.8,4.3-3.5,5.7
		c-1.3,2.1-1.2,4.5,0.9,7.4c1.8,2.5,1.9,4.6,0.9,6.4c1.8,1.3,3.7,2.6,5.5,4c4.6,3.3,5.9,5.4,5.5,9.5c-0.3,3-1.1,5.8-1.9,8.5
		c-1.6,4.9-2.1,9.8,2,16.2c1.8,2.8,1.6,5.7,0.3,7.9c1.2,1.9,2.8,3.7,3.6,5.7c1.1,2.6,0.9,5.2-1.1,5.9c-5.5,2-8.9,7.1-14.8,8.5
		c-0.3-0.9-0.4-1.9-0.7-2.8c0.3,0.9,0.5,1.9,0.7,2.8c-3.9,3.1-3.8,9.2-6.1,13.5c2.7,3.4,4.3,7,4.3,10.7c0,1.6-0.3,3.8-1.8,3.1
		c-4.5-2.1-4,2.4-6.1,3.7c-3.4-3.6-6.7-7.6-11-9.9c-2.6,2-5.2,4.1-7.8,6.1c1.5,4.2,3.2,8.4,2.9,12.5c-0.2,1.8,0.3,4.2,1.2,6.1
		c2.2,4.8,3.8,9.1,0.2,12c-1.3,1-0.3,3.7-0.1,5.7c0.5,6-0.3,6.2-6.7,2.2c-1.1-0.7-2.2-1-3.4-1.5c-2.2,5,2,12.8-2,16.7
		c-4.1,3.9-5.5,10.4-10.5,13.4c-1.1,8.6-6.8,12.3-13.9,14.4c-1.2,0.4-2.4,1.7-2.5,3c-0.1,9-6.5,12.1-12.1,15.4
		c-5.8,3.4-9.9,8.6-13.9,13.8c-2,2.7-4.2,5.2-6.6,7.4c-5.7,5-12.2,9.1-15.7,16.5c-0.8,1.8-3,2.6-4.5,3.8c-4.2,3.2-8.1,6.6-11,11.5
		c-2.9,4.9-7,8.9-10.9,12.9c-5.4,5.4-11.7,9.8-15.5,16.8c-0.8,1.4-2.6,2-3.9,3c0.6,2.9-0.9,4.3-2.5,5.5c-3.8,2.7-7.4,5.6-9.1,10.5
		c-0.3,1-1.1,1.7-1.9,2.3c-5.6,3.7-9.3,9.3-13.5,14.6c-3.5,4.4-7.3,8.6-11.2,12.7c-5.3,5.6-10.1,11.8-14.7,18.1H961
		c27.6,0,50-22.4,50-50V67C1011,39.4,988.6,17,961,17z M663.8,146.5c-0.3-0.1-0.7-0.3-0.8-0.6c-0.5-1-0.3-1.3,0.6-0.9
		c0.2,0.1,0.4,0.6,0.6,0.9C664,146.1,663.9,146.5,663.8,146.5z M678.8,152.5c-0.1,0.1-0.7-0.2-1-0.5c-0.6-0.5-1.1-1.1-1.6-1.7
		c0,0-0.1,0-0.1,0c0,0,0-0.1-0.1-0.1c-1.1,0.6-2.3,1.4-3.9,0.3c-1-0.6-1.8-1.9-2.5-3c-0.2-0.4,0.2-1.7,0.6-1.7
		c1,0.2,2.2,0.6,3.1,1.3c1,0.8,1.8,1.9,2.7,3c0,0,0,0,0.1,0l0,0.1c0,0,0-0.1,0-0.1c0,0,0.1,0.1,0.1,0.1c0.7,0.1,1.3,0.1,1.9,0.4
		C679,151.1,679.3,151.9,678.8,152.5z"/>
	<path class="st2" d="M50.9,334.2c0.4-0.5,0.2-1.6,0.7-2c10-8.7,14.2-22.9,23.3-32.5c5.5-5.7,10.4-12.1,15.8-17.9c3-3.2,5-7,7.1-11
		c3.2-6.3,5.8-13.5,13.6-15.1c1.8-0.4,2.2-2.4,2.6-4.2c-0.8-3.3-0.1-4.7,3.4-2.7c1.9-5.5,3.2-11.3,8.6-14c2.4-1.2,3-5.1,4.4-7.8
		c-0.1-0.4-0.5-1.1-0.4-1.2c2.7-2.8,3.8-7.5,9-7c6.1-4.5,10.4-10.7,14.6-17c1.5-2.2,3.3-4.1,5-6.1c7.2-8,12.4-18.2,21.8-23.9
		c0.9-0.9,1.9-1.8,2.8-2.7c4.6-8.5,11.3-14.8,19.2-19.6c3.5-2.1,4.5-6.6,8-8.8c1.9-1.2,3.2-3.3,5.3-4.3c0.1-1.7,0.7-2.9,2.1-3.4
		c2.5-5,7.3-7.5,10.7-11.5c2.1-2.5,5.9-1.7,8.6-2.9c-0.3-3.9,1.4-6.1,4-7.6c8.8-9.3,17.5-18.9,27.9-26.4c6.9-5,13.8-10,19.7-16.2
		c0.5-0.5,0.9-1,1.5-1.3c10.5-5.2,17.4-14.8,26.9-21.3c2.6-1.8,5.5-2.3,9.3-0.5c1.3-0.6,2.6-1.2,3.9-1.8c-1.4-2.6-0.6-4,1-4.8
		c0.5-1.4,1.7-2,3.3-1.7c4.4-2.7,8.3-5.8,14.3-6.1c4.2-0.2,7.6-2.6,11.3-4c0.2-1.5,0.9-2.7,2.2-3.2c5.2-3.1,10.8-5.4,16.9-6.6H65
		c-27.6,0-50,22.4-50,50v319.1c5.4-8,10.7-16.1,16.5-23.8C38.4,353.3,44.4,343.5,50.9,334.2z"/>
	<path class="st3" d="M804.4,979.3c4.2-5.2,7.9-10.8,13.5-14.6c0.8-0.5,1.6-1.3,1.9-2.3c1.7-4.9,5.4-7.7,9.1-10.5
		c1.6-1.2,3.1-2.6,2.5-5.5c1.3-1,3.2-1.5,3.9-3c3.8-7.1,10.1-11.5,15.5-16.8c4-4,8-7.9,10.9-12.9c2.8-4.9,6.8-8.2,11-11.5
		c1.6-1.2,3.7-2,4.5-3.8c3.5-7.4,10-11.5,15.7-16.5c2.4-2.2,4.6-4.7,6.6-7.4c4-5.2,8.1-10.3,13.9-13.8c5.6-3.3,12-6.3,12.1-15.4
		c0-1.3,1.3-2.6,2.5-3c7.1-2.1,12.8-5.8,13.9-14.4c5-3,6.4-9.5,10.5-13.4c4-3.9-0.2-11.7,2-16.7c1.1,0.5,2.3,0.8,3.4,1.5
		c6.4,4,7.2,3.8,6.7-2.2c-0.2-2-1.1-4.7,0.1-5.7c3.6-2.9,2-7.2-0.2-12c-0.9-2-1.3-4.3-1.2-6.1c0.3-4.1-1.4-8.3-2.9-12.5
		c2.6-2,5.2-4.1,7.8-6.1c4.3,2.3,7.6,6.3,11,9.9c2.2-1.3,1.6-5.8,6.1-3.7c1.5,0.7,1.7-1.5,1.8-3.1c0-3.8-1.6-7.3-4.3-10.7
		c2.3-4.3,2.2-10.4,6.1-13.5c-0.3-0.9-0.4-1.9-0.7-2.8c0.3,0.9,0.5,1.9,0.7,2.8c5.9-1.4,9.3-6.5,14.8-8.5c2-0.7,2.3-3.3,1.1-5.9
		c-0.8-2-2.4-3.8-3.6-5.7c1.3-2.2,1.6-5.1-0.3-7.9c-4.1-6.3-3.6-11.3-2-16.2c0.9-2.7,1.6-5.5,1.9-8.5c0.5-4.1-0.9-6.2-5.5-9.5
		c-1.8-1.3-3.7-2.6-5.5-4c1.1-1.8,0.9-3.9-0.9-6.4c-2.1-2.9-2.2-5.3-0.9-7.4c1.8-1.4,4.7-2.5,3.5-5.7c-2.2-5.7-1.7-11.5-6.1-17
		l-0.8-0.4c8.1-2.9,7.7-11.1,5.9-20.2c-0.7-3.6-3.5-5.7-7-4.7c-2.2,0.7-3.4-0.3-4.9-2.5c0.6-0.9,1.3-1.8,1.9-2.8
		c4.3-0.5,3.1-4.6,3-8.2c0-2.6,3.3-4.5,1-7.4c-3.1-3.9-5.2,0.2-8-0.1c-3.7-0.4-5.6,2.2-8.1,3.7c-0.9-1.5-2.6-3.1-1.5-4.5
		c1.6-2.1,3.5-4,4.9-6.2c1.6-2.5,3-5.2,4.3-8c0.7-1.6-0.7-4.5-2.5-5.4c-1.1-0.6-2.3-0.9-3.5-1.4c-4.2-1.7-6.7-4.7-6.3-8.3
		c0.3-2.6,1.1-5,2-7.2c1.9-4.9,2.4-10.5,1.7-16.6c4.1-4.8,5.7-11.6,3-19.2c-2-5.6-0.8-9.4-1.3-14.1c0.5-3.4,2.1-5.9,4.3-8.1
		c3.1-3.2,1.8-7.8-3.1-11.4c-2.6-1.9-5.4-3.1-7.2-6.2c1.1-1.3,2.9-2.2,3.1-3.8c0.9-6.5,3.5-11.6,6-17c0.9-2,0.8-4.2-0.1-6.9
		c-1.5-4.1-0.6-7.6,1.7-9.5c3.8-3.2,6.8-6.3,2.1-13.8c-0.5-0.8,0.2-2.2,0.2-3.4c-0.3-4.8-0.3-4.9-6-8.1c-2-1.1-3-2.9-1.9-3.9
		c2.8-2.3,3.9-5.3,2.4-10c-0.9-2.8-0.2-4.9,2.1-5.5c5.8-1.5,7.3-7.4,10.8-11.2c-6.7-9.5-8-10.3-15.1-9.5c-0.7,0.1-1.4,0.2-2.1,0.4
		c-7.8,1.7-15.5,3.4-23.3,5.1c-7.8,1.7-15.5,3.5-23.4,5.2c-2,0.4-4.2,0.9-6.4-2c-1.5-0.9-3.1-1.8-4.6-2.6c1.6,0.8,3.1,1.7,4.6,2.6
		c0.5-1.7,0.9-3.6,1.6-5.1c2.8-6.1,5.2-12.2,2.7-20.9c-0.4-1.5-0.1-3.4,0.7-4.3c1.9-2.2,1.5-5.4,1.5-8.6c0-4.7-0.2-9.7,0.8-13.9
		c2-8.1,0.3-17.4-1.6-26.2c-1.8-8.7-3.3-17.4-5.5-26.2c-2.4-9.5-3.3-19.1,3.1-24.8c1.4-1.3,2.2-3.4,2.9-5.4c2-5.8,1.5-12-4.3-18.7
		c-5-12.6-9.6-25.3-22-34.4c-1.6-1.2-3.1-3.7-3.9-5.7c-2.2-5.4-3.9-10.8-5.9-16.2c0,0,0-0.7,0-0.7c0.8-1.4,0.5-3-0.6-4.9
		c0.6-2.7-1.3-5.5-2.5-8.3c-0.2-2-1.5-3.7-2.8-5.4c1.4-2.2,5.3-2.5,3.7-7.2c2.3-3.4,2.3-3.4-1.7-9c2.1-5.1,1-11.8,3.2-17
		c1.5-3.4-4.7-10.9-9-11.1c-8.1-0.3-16.4-1-23,2.3c-1.5-0.1-3.1-0.4-4.5-0.1c-11.1,1.8-22.2,3.7-33.3,5.7c-1.7,0.3-3.6,0.5-4.3,2.3
		c-1.5,3.8-5.1,4.2-8.8,4c-3.9-0.2-7.1,0.7-10.2,2.1c-7.7,3.3-15.2,7-23,10.1c-3.1,1.3-6.1,2.8-9.1,4.2c-6.2,2.7-11.5,6.6-17.3,9.8
		c-10.7,6.1-21.9,11.2-32.8,17c-3.8,2-7.3,4.6-9.7,8.4c-3.6-1.2-5.2,1.3-7.6,2.4c-3,1.4-4.8,4.8-9.1,3.8c-3.2-7.3-7.6-12.7-15-13.6
		c-0.4,0-0.8,0-1.1-0.2c-1.8-0.6-2.9-1.8-3.2-3.8c-0.3-1.6-0.6-3.3-1.3-4.9c-2.3-5.3-6.1-10.5-4-15.6c0.3-0.8-1.2-3.2-2.2-4.7
		c-2.1-3.2-4.8-5.8-7.8-7.9c-1.7-1.2-2.2-2.8-1.9-4.5c0.2-1.1,1.1-2.4,0.7-3.1c-4.2-6.5-8.6-13-12.9-19.4c-6.6-1.5-13.2-7.6-19.7-7
		c-1.3-1.4-2.6-2.8-3.9-4.2c-0.2-4.1-0.7-4.4-4.9-4c-0.6-0.6-1.2-1.2-1.8-1.7c-1.2-1.4-2.4-2.8-3.6-4.3c4.7-3.1,3-8.6-1.1-13.6
		c-4.3-5.3-3.6-8.5-1.7-12c0.7-1.2,1.3-2.3,2-3.5c2.3-2.7,6.6-1.7,10-3.1c-1.9-2.6-3.7-4.8-5.2-7.1c-1-1.5-2.5-4-2.1-4.7
		c2.4-4.3-1.6-8.6-3.5-13c-0.6-1.4-1.3-2.4-2.1-3.1h-10c-0.2,0.6-0.3,1.2-0.5,1.8c-1.4-0.2-2.7-0.8-3.8-1.8H379.4
		c-6.1,1.2-11.8,3.5-16.9,6.6c-1.3,0.5-2,1.7-2.2,3.2c-3.7,1.4-7.1,3.8-11.3,4c-6,0.3-9.9,3.5-14.3,6.1c-1.7-0.3-2.8,0.2-3.3,1.7
		c-1.7,0.9-2.5,2.2-1,4.8c-1.3,0.6-2.6,1.2-3.9,1.8c-3.8-1.9-6.7-1.3-9.3,0.5c-9.4,6.5-16.4,16.1-26.9,21.3c-0.6,0.3-1,0.8-1.5,1.3
		c-5.9,6.2-12.8,11.2-19.7,16.2c-10.4,7.5-19.1,17-27.9,26.4c-2.6,1.5-4.3,3.7-4,7.6c-2.7,1.2-6.5,0.4-8.6,2.9
		c-3.3,4.1-8.2,6.5-10.7,11.5c-1.4,0.5-2,1.8-2.1,3.4c-2.1,1-3.5,3.1-5.3,4.3c-3.4,2.2-4.5,6.7-8,8.8c-7.9,4.9-14.6,11.1-19.2,19.6
		c-0.9,0.9-1.9,1.8-2.8,2.7c-9.4,5.7-14.6,15.9-21.8,23.9c-1.7,2-3.5,3.9-5,6.1c-4.2,6.4-8.6,12.6-14.6,17c-5.2-0.5-6.4,4.3-9,7
		c-0.1,0.1,0.3,0.8,0.4,1.2c-1.4,2.7-2,6.5-4.4,7.8c-5.3,2.8-6.7,8.5-8.6,14c-3.5-2.1-4.2-0.6-3.4,2.7c-0.4,1.8-0.8,3.8-2.6,4.2
		c-7.8,1.6-10.4,8.8-13.6,15.1c-2.1,4-4.1,7.9-7.1,11c-5.4,5.8-10.3,12.2-15.8,17.9c-9.1,9.6-13.3,23.8-23.3,32.5
		c-0.5,0.4-0.3,1.5-0.7,2c-6.5,9.4-12.5,19.1-19.4,28.2c-5.8,7.6-11.1,15.8-16.5,23.8v252.4c2.2-0.9,4.5-1.7,6.7-2.7
		c8.3,0.6,13-5,19.4-7.8c4-1.4,8-2.8,12.1-4.2c1.8-0.8,3.6-1.6,5.4-2.5l0,0c1.3-0.2,2.8-0.3,4-0.7c7.7-2.3,15.1-5.7,23.3-6.8
		c6.1-0.9,11.2-2.8,15.5-6.3c3,0.5,6,1,8.5-0.3c8.5-4.1,17.1-8.1,25.6-12.1c5.6-0.2,9.7-2.8,13.9-5.4c2.8-1.7,5.3-3.8,9.5-3
		c7.6,1.3,13.5-0.7,18.1-5.2c0.9-0.8,1.8-1.9,4.4-0.8c1.6,3.9,1.2,7.6,0.9,11.3c-0.3,4.2-0.9,8.2-1.3,12.3l0,0
		c-3.3,9.4-4.1,20.3-6.1,30.4c-4.5,8.8-3.5,20.3-4.5,30.9c-0.4,4.2-0.1,7.7,3.6,11.6c3.1,3.3,5.2,7.3,5.5,10.8
		c0.8,7.7,6.6,11.5,11.7,15.8c2.8,2.4,6.1,3,9.2,3.3c6.3,1.8,11.3,6.3,15.7,12c2.3,2.9,4.7,5.9,6.8,8.9c9.7,14.3,22.8,24,35.4,34.5
		c11.4,10.5,23.3,18.4,36.5,21.6c1.4,2,2.3,3.8,1.5,5.8c-1.7,4.6-4.1,8.7-4.3,14.2c-3.1,7.4-7,14.3-6.8,23.7c-0.7,2-1.3,4-2,6
		c-0.4,0.6-0.7,1.3-1.1,1.9c-6,12.2-7.2,27.3-11.3,40.6c-1,3.3-0.4,7.7-0.5,11.6l0.2,0c-0.6,2.9,0.4,5.9,1.9,9.1
		c-0.5,0.4-0.6,1.1-0.3,2c-0.9,1.5-0.2,3.3,0.9,5.2c-0.5,0.9-0.5,1.9,0.3,3.1c-0.4,2.5-0.9,4.8-1,7.4c-0.1,2.8,0.9,3.5,4.1,2.9
		c0.6-0.1,1.2-0.5,1.8-0.7c1,0,1.9,0,2.9,0c1.2,1.3,2.5,2.7,3.7,4c4.9,5.7,4.9,5.7,9.8,2.6c7.6,0.6,15.2,2.2,22.9,8
		c1.3,0.9,3,0.8,4.6,1.1c0.8,1,1.6,1.2,2.3,0.8c1.8,0.8,3.6,1.5,5.4,2.3c0.9,2.5,1.9,4.9,2.8,7.4c-3.7,7.3-10.5,11.7-13.8,19.3
		c-6.3,2.2-11.7,6.2-18.9,7.1c-4.1,0.5-5.4,4.8-6.8,8.4c-1.1,2.8-0.8,6.1,1.9,9.5c4.1,4.9,5.9,10.4,8.4,15.8c1.1,2.2,2,4.6,3,6.8
		h472c4.7-6.3,9.4-12.4,14.7-18.1C797.1,987.8,800.9,983.6,804.4,979.3z"/>
</g>
<g id="Layer_4">
	<path class="st4" d="M819,449l-15-6l-29,7l-3,9l1,40l-16,56l-7,2l-21-38l-47-50l-61-3l-36-28l-19-24l-8-59l16-31l4-31v-12l-44-40
		l-22,8l8,5l22,64l-13,10l-13-9l-34-12l19,18l3,11l-12,9l-18,66l-18,30l-26,28l-68-9l-48,64l-23,36l-7-27v-57l-11-28l-5-2l-3-13
		l-50,15l30,36l-13,33l47,172l34-16l29-22l42-28l26-2l11,90l-23-30l59,137l67-51l35,38l57-31l8-31l51.2-115.2l6.8,1.2l18-2l18,19
		l46,34l17-36l19-146l27-35L819,449z M325,631l30-57l-18-47l34,2l2,62L325,631z M508,562l-33,23l-69-2l-9-26l87-1l24-51V562z
		 M552,584l-12-68l25,43h80l-10,25H552z M629,710l9-89l21.3,3.9L629,710z M671,581l2-52l41-2l-16,48l24,58L671,581z"/>
</g>
<g id="Layer_2">
	<path class="st5" d="M961,1010H65c-27.6,0-50-22.4-50-50V67c0-27.6,22.4-50,50-50h896c27.6,0,50,22.4,50,50v893
		C1011,987.6,988.6,1010,961,1010z"/>
	<line class="st5" x1="17" y1="431" x2="1003" y2="431"/>
</g>
<g id="Layer_3">
	<polygon points="305,671 269,719 221,652 232,520 244,600 272,685 	"/>
	<polygon points="426,750 385,606 372,613 290,697 365,653 408,707 	"/>
	<polygon points="322,625 304,655 272,500 	"/>
	<polygon points="223,512 231,485 199,453 220,488 	"/>
	<path d="M323,638l60-45l1-38l21,35l78-3l35-43l-41,24l-68,2c-12.8-31-24.9-61.1-29-80l-52,30l34,5l5,55L323,638z"/>
	<polygon points="244,483 263,499 280,493 301,452 280,435 273,442 260,448 273,456 260,473 	"/>
	<polygon points="207,457 195,436 196,422 200,417 208,421 	"/>
	<polygon points="226,453 210,415 216,400 227,410 241,398 251,405 262,410 271,410 263,434 254,449 245,457 235,447 	"/>
	<path d="M291,550.5l3,0.5l10-25c-14.4-43.8-4.3-72.4,28-87l40-1l50,15l-65,1c-22.4,2-37.7,10.2-38,31l-5,19c4,20.6,1.5,39.7-8,57
		l-11,4L291,550.5z"/>
	<path d="M431,686l-3-13l91-56h23l73,61c-25.9-15.4-50.3-29-64-30l-25-7l-69,24C447.9,670.5,439.2,677.6,431,686z"/>
	<polygon points="512,672 512,700 463,704 458,689 	"/>
	<polygon points="511,723 511,748 474,749 467,732 	"/>
	<path d="M461,415c5.4-11.1,7.3-26.7,8-44c1.9,16.6,4.1,32,7,45L461,415z"/>
	<path d="M499,416c-3-20.2-5.3-39-6-54c-7.5-2.4-14.4-5-20-8c-3.7-1.1-7.4-1.2-11,0c-2.2,1.8-3.5,4.2-4,7c-10.6-4.7-17.6-12.3-21-23
		c4.3-1.7,8.3-4,12-7c-3.4-14.9-2.2-30.2,4-46c5.5-14.2,14.7-26.3,28-36c12.8-10.1,25.6-18.3,39-18c12.4-0.4,25.6,5.6,39,14
		c10.1,6.2,19.4,17.2,28,33c4.4,8.2,7.3,17.4,8,28c1.6,10.1,5.3,21.7,10,34c0.3,0.7,0.4,1.7,0,3c-6.3,9.5-15.5,18-26,26
		c-4.5,3-6.8,2-7-3c1.8-15.6,4.9-30.4,10-44c1.7-7.4,1.6-15.1,0-23c-4.7-15.1-13.7-27.1-27-36c-9.4-7.2-21.5-9.4-35-9
		c-12-0.2-22.5,4.1-32,12c-9.5,7.1-16.2,16.8-20,29c-2.9,9.6-3.3,18.4,0,26c4.5,9.2,12.5,17.5,23,25c8.1,1.1,19.5-1,32-4
		c10.8-1,23.6,6.9,37,18c-2,1.8-3.6,2.6-5,3l-5,55h-3v-3l-12-57c-7-5.7-14.3-5.4-22,0c-3.9,15-8.4,36.2-13,59L499,416z"/>
	<polygon points="533,709 578,715 583,700 534,673 	"/>
	<polygon points="534,749 569,751 573,734 534,724 	"/>
	<path d="M529,515c-5.5-35.2-41.6-43.3-86-44c40.9-6.2,72.8-7.1,82,5c11.2-14.3,46.5-11.4,88-4C563.8,478.2,530.8,472.3,529,515z"/>
	<polygon points="622,736 664,602 698,640 776,715 692,684 680,661 656,690 	"/>
	<polygon points="528,540 539,586 634,595 651,564 661,592 715,639 673,583 672,523 709,514 659,493 631,573 557,574 	"/>
	<polygon points="739,676 785,715 811,611 808,521 797,600 758,679 	"/>
	<polygon points="813,516 807,492 839,460 817,496 	"/>
	<path d="M800,486c-10.2-6-19.7-15.5-29-26l14-9l-21-11l-20,14l21,42l15,6L800,486z"/>
	<path d="M805,440l1,6c7.2,4.3,16,6.1,26,6l14-9L805,440z"/>
	<polygon points="828,416 823,404 812,416 797,401 788,409 770,416 812,433 	"/>
	<polygon points="793,441 791,448 786,448 779,441 	"/>
	<path d="M739,665l-19-30l28-67c-13.2,1.1-17.6-19.7-19-48l4-10l-8-21c0.9-17.2-7.5-25.9-22-29c-27.1-6-54.1-5.4-81-3l61-18l30,5
		c15.6,4.2,26.2,14.6,31,32c3.8,17,3.1,34-2,51c2.2,9,5.7,18,10,27l19-44L739,665z"/>
</g>
</svg>
